<svg xmlns="http://www.w3.org/2000/svg" version="1.1" xmlns:xlink="http://www.w3.org/1999/xlink" width="416" height="416"><svg xmlns="http://www.w3.org/2000/svg" viewBox="0 0 416 416">
<!--Rounded square-->
  <rect x="0" y="0" width="416" height="416" rx="96" ry="96" fill="#000000"></rect>
<!--Three dots-->
  <circle cx="158" cy="208" r="20" fill="#FFFFFF"></circle>
  <circle cx="208" cy="208" r="20" fill="#FFFFFF"></circle>
  <circle cx="258" cy="208" r="20" fill="#FFFFFF"></circle>
<!--Curly braces-->
  <g stroke="#FFFFFF" stroke-width="32" fill="none" stroke-linecap="round" stroke-linejoin="round">
<!--Left brace-->
    <path d="M128 96
             c-24 0-40 16-40 40
             v40
             c0 16-8 24-16 32
             c8 8 16 16 16 32
             v40
             c0 24 16 40 40 40"></path>
<!--Right brace-->
    <path transform="translate(416,0) scale(-1,1)" d="M128 96
             c-24 0-40 16-40 40
             v40
             c0 16-8 24-16 32
             c8 8 16 16 16 32
             v40
             c0 24 16 40 40 40"></path>
  </g>
</svg><style>@media (prefers-color-scheme: light) { :root { filter: none; } }
@media (prefers-color-scheme: dark) { :root { filter: none; } }
</style></svg>